<?xml version="1.0" standalone="no"?><!DOCTYPE svg PUBLIC "-//W3C//DTD SVG 1.1//EN" "http://www.w3.org/Graphics/SVG/1.1/DTD/svg11.dtd"><svg t="1789107938513" class="icon" viewBox="0 0 1024 1024" version="1.1" xmlns="http://www.w3.org/2000/svg" p-id="5441" xmlns:xlink="http://www.w3.org/1999/xlink" width="32" height="32"><path d="M512 56.888889C261.688889 56.888889 56.888889 261.688889 56.888889 512s204.8 455.111111 455.111111 455.111111 455.111111-204.8 455.111111-455.111111-204.8-455.111111-455.111111-455.111111m0 853.333333c-221.866667 0-398.222222-176.355556-398.222222-398.222222s176.355556-398.222222 398.222222-398.222222 398.222222 176.355556 398.222222 398.222222-176.355556 398.222222-398.222222 398.222222" fill="#707070" p-id="5442"></path><path d="M506.311111 682.666667c-17.066667 0-28.444444 5.688889-39.822222 17.066666-11.377778 11.377778-17.066667 22.755556-17.066667 39.822223 0 17.066667 5.688889 28.444444 17.066667 39.822222 11.377778 11.377778 22.755556 17.066667 39.822222 17.066666 17.066667 0 28.444444-5.688889 39.822222-17.066666 11.377778-11.377778 17.066667-22.755556 17.066667-39.822222 0-17.066667-5.688889-28.444444-17.066667-39.822223-11.377778-11.377778-22.755556-17.066667-39.822222-17.066666z m17.066667-466.488889c-56.888889 0-102.4 17.066667-136.533334 51.2-39.822222 34.133333-56.888889 79.644444-56.888888 136.533333h85.333333c0-34.133333 5.688889-62.577778 22.755555-79.644444 17.066667-22.755556 39.822222-34.133333 79.644445-34.133334 28.444444 0 51.2 5.688889 68.266667 22.755556 17.066667 17.066667 22.755556 39.822222 22.755555 62.577778 0 22.755556-5.688889 39.822222-22.755555 56.888889l-17.066667 17.066666c-45.511111 45.511111-79.644444 79.644444-91.022222 102.4-11.377778 17.066667-11.377778 45.511111-11.377778 73.955556v11.377778h85.333333V625.777778c0-17.066667 5.688889-34.133333 11.377778-51.2 5.688889-17.066667 17.066667-28.444444 34.133333-39.822222 39.822222-34.133333 62.577778-51.2 68.266667-62.577778 22.755556-22.755556 28.444444-56.888889 28.444444-96.711111 0-45.511111-17.066667-85.333333-45.511111-113.777778-34.133333-34.133333-73.955556-45.511111-125.155555-45.511111z" fill="#707070" p-id="5443"></path></svg>